# xmcd
#
# Track frame offsets:
#	150
#	3567
#	10154
#	19919
#	23446
#	31360
#	35585
#	41077
#	43144
#	45236
#	46795
#	51167
#	52823
#	56759
#	60964
#	67212
#	80052
#	88157
#	102465
#	106280
#	108464
#	113172
#	116565
#	131773
#	134378
#	140646
#	147598
#	152737
#	161297
#	170158
#	177824
#	185885
#	198079
#	210021
#	221389
#	224126
#	225855
#	230404
#	235016
#	251899
#	253495
#	257183
#	260647
#	270196
#	292070
#	301761
#	310757
#
# Disc length: 4265 seconds
#
# Revision: 0
# Processed by: cddbd v1.5.2PL0 Copyright (c) Steve Scherf et al.
# Submitted via: dBpowerAMP V4.0
#
DISCID=ab10a72f
DTITLE=Various Artist - logman
DYEAR=2007
DGENRE=Country
TTITLE0=ingles - Track01
TTITLE1=ingles - Track02
TTITLE2=ingles - Track03
TTITLE3=ingles - Track04
TTITLE4=ingles - Track05
TTITLE5=ingles - Track06
TTITLE6=ingles - Track07
TTITLE7=ingles - Track08
TTITLE8=ingles - Track09
TTITLE9=ingles - Track10
TTITLE10=ingles - Track11
TTITLE11=ingles - Track12
TTITLE12=ingles - Track13
TTITLE13=ingles - Track14
TTITLE14=ingles - Track15
TTITLE15=ingles - Track16
TTITLE16=ingles - Track17
TTITLE17=ingles - Track18
TTITLE18=ingles - Track19
TTITLE19=ingles - Track20
TTITLE20=ingles - Track21
TTITLE21=ingles - Track22
TTITLE22=ingles - Track23
TTITLE23=ingles - Track24
TTITLE24=ingles - Track25
TTITLE25=ingles - Track26
TTITLE26=ingles - Track27
TTITLE27=ingles - Track28
TTITLE28=ingles - Track29
TTITLE29=ingles - Track30
TTITLE30=ingles - Track31
TTITLE31=ingles - Track32
TTITLE32=ingles - Track33
TTITLE33=ingles - Track34
TTITLE34=ingles - Track35
TTITLE35=ingles - Track36
TTITLE36=ingles - Track37
TTITLE37=ingles - Track38
TTITLE38=ingles - Track39
TTITLE39=ingles - Track40
TTITLE40=ingles - Track41
TTITLE41=ingles - Track42
TTITLE42=ingles - Track43
TTITLE43=ingles - Track44
TTITLE44=ingles - Track45
TTITLE45=ingles - Track46
TTITLE46=ingles - Track47
EXTD=ingles parte 1
EXTT0=
EXTT1=
EXTT2=
EXTT3=
EXTT4=
EXTT5=
EXTT6=
EXTT7=
EXTT8=
EXTT9=
EXTT10=
EXTT11=
EXTT12=
EXTT13=
EXTT14=
EXTT15=
EXTT16=
EXTT17=
EXTT18=
EXTT19=
EXTT20=
EXTT21=
EXTT22=
EXTT23=
EXTT24=
EXTT25=
EXTT26=
EXTT27=
EXTT28=
EXTT29=
EXTT30=
EXTT31=
EXTT32=
EXTT33=
EXTT34=
EXTT35=
EXTT36=
EXTT37=
EXTT38=
EXTT39=
EXTT40=
EXTT41=
EXTT42=
EXTT43=
EXTT44=
EXTT45=
EXTT46=
PLAYORDER=
